<?xml version="1.0" standalone="no"?>
<!DOCTYPE svg PUBLIC "-//W3C//DTD SVG 20010904//EN"
 "http://www.w3.org/TR/2001/REC-SVG-20010904/DTD/svg10.dtd">
<svg version="1.0" xmlns="http://www.w3.org/2000/svg"
 width="980.000000pt" height="980.000000pt" viewBox="0 0 980.000000 980.000000"
 preserveAspectRatio="xMidYMid meet">

<g transform="translate(0.000000,980.000000) scale(0.100000,-0.100000)"
fill="#000000" stroke="none">
<path d="M4845 9261 c-16 -10 -66 -44 -110 -76 -227 -163 -561 -332 -865 -437
-331 -114 -744 -178 -1037 -161 -169 10 -183 -7 -183 -232 l0 -155 -492 0
c-272 0 -524 -5 -562 -10 -170 -25 -317 -99 -442 -224 -122 -122 -186 -243
-220 -414 -20 -107 -21 -4517 0 -4632 55 -301 269 -534 572 -622 l79 -23 1155
-3 c891 -2 1156 -5 1163 -15 12 -18 -2 -187 -24 -299 -52 -262 -182 -498 -395
-718 -67 -69 -84 -96 -208 -336 -137 -262 -150 -299 -126 -345 28 -52 -63 -49
1747 -49 1650 0 1679 0 1710 20 36 21 48 54 40 103 -3 18 -65 145 -137 282
-116 222 -139 258 -199 320 -265 274 -397 551 -427 896 -3 42 -3 90 1 107 l6
31 1157 3 c1296 4 1197 -2 1368 78 234 108 389 308 440 568 12 63 14 409 14
2320 0 2152 -1 2251 -19 2337 -34 163 -111 298 -239 416 -120 110 -257 175
-421 199 -36 5 -288 10 -558 10 l-493 0 0 155 c0 226 -13 242 -188 233 -195
-11 -483 17 -704 68 -411 94 -873 300 -1203 536 -137 98 -147 102 -200 69z
m190 -302 c535 -355 1156 -557 1760 -573 l140 -4 2 -43 c1 -24 7 -231 13 -459
5 -228 15 -596 21 -816 27 -1034 -53 -1578 -301 -2051 -225 -430 -590 -782
-1160 -1123 -140 -83 -369 -206 -499 -268 l-114 -54 -81 38 c-45 21 -157 78
-251 127 -961 504 -1448 1038 -1640 1797 -94 369 -123 809 -104 1540 6 239 16
633 22 875 l12 440 130 2 c603 10 1220 210 1780 577 72 47 132 84 135 83 3 -1
64 -41 135 -88z m-2395 -1139 l0 -180 -537 0 c-520 0 -539 -1 -571 -20 -18
-11 -37 -32 -42 -46 -6 -16 -10 -861 -10 -2340 0 -2082 2 -2318 16 -2345 32
-64 -233 -59 3401 -59 3139 0 3320 1 3353 18 19 9 40 28 47 42 10 20 12 505
10 2357 l-2 2333 -28 27 -27 28 -550 3 -550 2 0 181 0 180 523 -3 c506 -3 524
-4 587 -26 197 -66 339 -219 390 -418 20 -76 20 -119 20 -2319 0 -2200 0
-2243 -20 -2319 -37 -145 -114 -256 -237 -340 -81 -55 -157 -83 -261 -97 -51
-6 -1179 -9 -3312 -7 l-3235 3 -78 27 c-203 69 -350 231 -392 433 -22 105 -22
4495 0 4600 48 230 240 416 468 454 29 5 274 9 545 10 l492 1 0 -180z m-14
-562 c-15 -479 -16 -632 -6 -872 28 -695 125 -1109 359 -1531 234 -421 630
-796 1206 -1140 259 -155 661 -355 712 -355 39 0 453 205 668 331 929 543
1397 1158 1545 2031 64 378 79 817 54 1551 l-6 167 476 0 476 0 -2 -2202 -3
-2203 -3210 0 -3210 0 -3 2203 -2 2202 476 0 476 0 -6 -182z m3059 -5103 c11
-228 59 -414 162 -620 41 -81 130 -221 181 -282 l34 -43 -1166 0 -1167 0 34
43 c138 170 257 411 305 622 23 100 44 273 42 344 -1 25 -1 48 -1 51 1 3 354
3 786 0 l785 -5 5 -110z m623 -1285 c39 -76 72 -144 72 -149 0 -8 -450 -11
-1485 -11 -1078 0 -1485 3 -1485 11 0 11 125 254 143 277 7 9 288 12 1346 12
l1336 0 73 -140z"/>
<path d="M4814 8774 c-419 -254 -848 -427 -1259 -507 -162 -32 -180 -35 -340
-51 -125 -13 -130 -15 -157 -45 -20 -22 -28 -42 -28 -69 0 -20 -7 -266 -16
-547 -19 -617 -15 -1304 10 -1520 70 -614 227 -992 573 -1380 88 -98 248 -243
383 -347 98 -75 337 -233 457 -301 163 -93 432 -227 456 -227 57 0 459 218
712 385 209 139 355 256 500 400 435 435 622 891 675 1645 18 267 12 917 -16
1749 -6 181 -7 184 -33 213 -26 29 -31 31 -171 45 -511 51 -1034 231 -1535
528 -60 36 -119 65 -131 65 -11 0 -47 -16 -80 -36z m190 -248 c421 -250 986
-444 1448 -498 l107 -12 5 -81 c23 -335 33 -1478 16 -1720 -53 -721 -226
-1131 -651 -1540 -229 -221 -500 -407 -878 -603 l-154 -80 -108 53 c-145 73
-350 191 -489 282 -174 114 -311 224 -459 368 -409 398 -581 816 -631 1525
-14 206 -12 829 5 1350 8 245 14 446 15 448 0 1 14 2 31 2 39 0 217 26 319 46
405 81 838 247 1220 467 65 38 100 53 110 47 8 -4 50 -29 94 -54z"/>
<path d="M4695 7904 c-38 -9 -108 -34 -155 -56 -151 -72 -288 -232 -347 -405
-14 -40 -18 -112 -22 -422 l-6 -374 -41 -12 c-67 -20 -120 -55 -156 -104 -66
-87 -63 -60 -63 -686 l0 -570 28 -57 c32 -64 80 -111 146 -142 46 -21 54 -21
816 -21 762 0 770 0 816 21 66 31 114 78 146 142 l28 57 0 570 c0 474 -2 576
-14 605 -39 93 -98 148 -194 181 l-52 18 -2 344 c-2 386 -7 428 -69 550 -93
186 -268 321 -466 361 -97 20 -298 20 -393 0z m368 -199 c168 -44 299 -170
343 -332 17 -60 19 -107 19 -398 l0 -330 -529 0 -528 0 1 343 c2 303 4 350 20
403 48 151 175 271 334 314 71 19 267 19 340 0z m598 -1291 l24 -26 3 -526 c2
-384 -1 -534 -9 -555 -25 -59 -2 -57 -784 -57 -655 0 -719 1 -746 17 -15 9
-33 28 -39 43 -7 17 -10 195 -8 552 l3 526 24 26 24 26 742 0 742 0 24 -26z"/>
<path d="M4829 6175 c-72 -15 -125 -44 -176 -97 -66 -68 -88 -126 -88 -233 0
-79 4 -96 28 -143 37 -70 97 -128 166 -160 46 -22 71 -26 136 -26 132 0 233
60 296 176 32 59 34 68 34 158 -1 79 -5 102 -24 140 -72 140 -224 216 -372
185z m142 -216 c86 -61 76 -184 -17 -230 -148 -71 -267 128 -138 230 37 29
115 29 155 0z"/>
</g>
</svg>
